<svg width="1297" height="151" viewBox="0 0 1297 151" fill="none" xmlns="http://www.w3.org/2000/svg">
<rect width="1297" height="151" rx="12" fill="#666666"/>
<path d="M25 28C25 26.3431 26.3431 25 28 25H1088C1089.66 25 1091 26.3432 1091 28V68C1091 69.6568 1089.66 71 1088 71H28C26.3431 71 25 69.6569 25 68V28Z" fill="white"/>
<path d="M25 28C25 26.3431 26.3431 25 28 25H1088C1089.66 25 1091 26.3432 1091 28V68C1091 69.6568 1089.66 71 1088 71H28C26.3431 71 25 69.6569 25 68V28Z" stroke="#3B71DC" stroke-width="2"/>
<path d="M56 55L52.1333 51.1333M54.2222 46.1111C54.2222 50.0385 51.0385 53.2222 47.1111 53.2222C43.1838 53.2222 40 50.0385 40 46.1111C40 42.1838 43.1838 39 47.1111 39C51.0385 39 54.2222 42.1838 54.2222 46.1111Z" stroke="#222222" stroke-width="2" stroke-linecap="round" stroke-linejoin="round"/>
<g clip-path="url(#clip0_375_87027)">
<path d="M74.6729 47.4014H75.5752C76.0173 47.4014 76.3818 47.3285 76.6689 47.1826C76.9606 47.0322 77.1771 46.8294 77.3184 46.5742C77.4642 46.3145 77.5371 46.0228 77.5371 45.6992C77.5371 45.3164 77.4733 44.9951 77.3457 44.7354C77.2181 44.4756 77.0267 44.2796 76.7715 44.1475C76.5163 44.0153 76.1927 43.9492 75.8008 43.9492C75.4453 43.9492 75.1309 44.0199 74.8574 44.1611C74.5885 44.2979 74.3766 44.4938 74.2217 44.749C74.0713 45.0042 73.9961 45.305 73.9961 45.6514H72.7314C72.7314 45.1455 72.859 44.6852 73.1143 44.2705C73.3695 43.8558 73.7272 43.5254 74.1875 43.2793C74.6523 43.0332 75.1901 42.9102 75.8008 42.9102C76.4023 42.9102 76.9287 43.0173 77.3799 43.2314C77.8311 43.4411 78.182 43.7555 78.4326 44.1748C78.6833 44.5895 78.8086 45.1068 78.8086 45.7266C78.8086 45.9772 78.7493 46.2461 78.6309 46.5332C78.5169 46.8158 78.3369 47.0801 78.0908 47.3262C77.8493 47.5723 77.5348 47.7751 77.1475 47.9346C76.7601 48.0895 76.2952 48.167 75.7529 48.167H74.6729V47.4014ZM74.6729 48.4404V47.6816H75.7529C76.3864 47.6816 76.9105 47.7568 77.3252 47.9072C77.7399 48.0576 78.0658 48.2581 78.3027 48.5088C78.5443 48.7594 78.7129 49.0352 78.8086 49.3359C78.9089 49.6322 78.959 49.9284 78.959 50.2246C78.959 50.6895 78.8792 51.1019 78.7197 51.4619C78.5648 51.8219 78.3438 52.1273 78.0566 52.3779C77.7741 52.6286 77.4414 52.8177 77.0586 52.9453C76.6758 53.0729 76.2588 53.1367 75.8076 53.1367C75.3747 53.1367 74.9668 53.0752 74.584 52.9521C74.2057 52.8291 73.8708 52.6514 73.5791 52.4189C73.2874 52.182 73.0596 51.8926 72.8955 51.5508C72.7314 51.2044 72.6494 50.8102 72.6494 50.3682H73.9141C73.9141 50.7145 73.9893 51.0176 74.1396 51.2773C74.2946 51.5371 74.5133 51.7399 74.7959 51.8857C75.083 52.027 75.4202 52.0977 75.8076 52.0977C76.195 52.0977 76.5277 52.0316 76.8057 51.8994C77.0882 51.7627 77.3047 51.5576 77.4551 51.2842C77.61 51.0107 77.6875 50.6667 77.6875 50.252C77.6875 49.8372 77.6009 49.4977 77.4277 49.2334C77.2546 48.9645 77.0085 48.7663 76.6895 48.6387C76.375 48.5065 76.0036 48.4404 75.5752 48.4404H74.6729ZM88.6182 51.0381C88.6182 50.8558 88.5771 50.6872 88.4951 50.5322C88.4176 50.3727 88.2559 50.2292 88.0098 50.1016C87.7682 49.9694 87.4036 49.8555 86.916 49.7598C86.5059 49.6732 86.1344 49.5706 85.8018 49.4521C85.4736 49.3337 85.1934 49.1901 84.9609 49.0215C84.7331 48.8529 84.5576 48.6546 84.4346 48.4268C84.3115 48.1989 84.25 47.9323 84.25 47.627C84.25 47.3353 84.3138 47.0596 84.4414 46.7998C84.5736 46.54 84.7581 46.3099 84.9951 46.1094C85.2367 45.9089 85.526 45.7516 85.8633 45.6377C86.2005 45.5238 86.5765 45.4668 86.9912 45.4668C87.5837 45.4668 88.0895 45.5716 88.5088 45.7812C88.9281 45.9909 89.2493 46.2712 89.4727 46.6221C89.696 46.9684 89.8076 47.3535 89.8076 47.7773H88.543C88.543 47.5723 88.4814 47.374 88.3584 47.1826C88.2399 46.9867 88.0645 46.8249 87.832 46.6973C87.6042 46.5697 87.3239 46.5059 86.9912 46.5059C86.6403 46.5059 86.3555 46.5605 86.1367 46.6699C85.9225 46.7747 85.7653 46.9092 85.665 47.0732C85.5693 47.2373 85.5215 47.4105 85.5215 47.5928C85.5215 47.7295 85.5443 47.8525 85.5898 47.9619C85.64 48.0667 85.7266 48.1647 85.8496 48.2559C85.9727 48.3424 86.1458 48.4245 86.3691 48.502C86.5924 48.5794 86.8773 48.6569 87.2236 48.7344C87.8298 48.8711 88.3288 49.0352 88.7207 49.2266C89.1126 49.418 89.4043 49.6527 89.5957 49.9307C89.7871 50.2087 89.8828 50.5459 89.8828 50.9424C89.8828 51.266 89.8145 51.5622 89.6777 51.8311C89.5456 52.0999 89.3519 52.3324 89.0967 52.5283C88.846 52.7197 88.5452 52.8701 88.1943 52.9795C87.848 53.0843 87.4583 53.1367 87.0254 53.1367C86.3737 53.1367 85.8223 53.0205 85.3711 52.7881C84.9199 52.5557 84.5781 52.2549 84.3457 51.8857C84.1133 51.5166 83.9971 51.127 83.9971 50.7168H85.2686C85.2868 51.0632 85.387 51.3389 85.5693 51.5439C85.7516 51.7445 85.9749 51.888 86.2393 51.9746C86.5036 52.0566 86.7656 52.0977 87.0254 52.0977C87.3717 52.0977 87.6611 52.0521 87.8936 51.9609C88.1305 51.8698 88.3105 51.7445 88.4336 51.585C88.5566 51.4255 88.6182 51.2432 88.6182 51.0381ZM94.6133 53.1367C94.0983 53.1367 93.6312 53.0501 93.2119 52.877C92.7972 52.6992 92.4395 52.4508 92.1387 52.1318C91.8424 51.8128 91.6146 51.4346 91.4551 50.9971C91.2956 50.5596 91.2158 50.0811 91.2158 49.5615V49.2744C91.2158 48.6729 91.3047 48.1374 91.4824 47.668C91.6602 47.194 91.9017 46.793 92.207 46.4648C92.5124 46.1367 92.8587 45.8883 93.2461 45.7197C93.6335 45.5511 94.0345 45.4668 94.4492 45.4668C94.9779 45.4668 95.4336 45.5579 95.8164 45.7402C96.2038 45.9225 96.5205 46.1777 96.7666 46.5059C97.0127 46.8294 97.195 47.2122 97.3135 47.6543C97.432 48.0918 97.4912 48.5703 97.4912 49.0898V49.6572H91.9678V48.625H96.2266V48.5293C96.2083 48.2012 96.14 47.8822 96.0215 47.5723C95.9076 47.2624 95.7253 47.0072 95.4746 46.8066C95.224 46.6061 94.8822 46.5059 94.4492 46.5059C94.1621 46.5059 93.8978 46.5674 93.6562 46.6904C93.4147 46.8089 93.2074 46.9867 93.0342 47.2236C92.861 47.4606 92.7266 47.75 92.6309 48.0918C92.5352 48.4336 92.4873 48.8278 92.4873 49.2744V49.5615C92.4873 49.9124 92.5352 50.2428 92.6309 50.5527C92.7311 50.8581 92.8747 51.127 93.0615 51.3594C93.2529 51.5918 93.4831 51.7741 93.752 51.9062C94.0254 52.0384 94.3353 52.1045 94.6816 52.1045C95.1283 52.1045 95.5065 52.0133 95.8164 51.8311C96.1263 51.6488 96.3975 51.4049 96.6299 51.0996L97.3955 51.708C97.236 51.9495 97.0332 52.1797 96.7871 52.3984C96.541 52.6172 96.238 52.7949 95.8779 52.9316C95.5225 53.0684 95.1009 53.1367 94.6133 53.1367ZM103.329 51.7354V47.9277C103.329 47.6361 103.27 47.3831 103.151 47.1689C103.037 46.9502 102.864 46.7816 102.632 46.6631C102.399 46.5446 102.112 46.4854 101.771 46.4854C101.451 46.4854 101.171 46.54 100.93 46.6494C100.693 46.7588 100.506 46.9023 100.369 47.0801C100.237 47.2578 100.171 47.4492 100.171 47.6543H98.9062C98.9062 47.39 98.9746 47.1279 99.1113 46.8682C99.248 46.6084 99.444 46.3737 99.6992 46.1641C99.959 45.9499 100.269 45.7812 100.629 45.6582C100.993 45.5306 101.399 45.4668 101.846 45.4668C102.383 45.4668 102.857 45.5579 103.268 45.7402C103.682 45.9225 104.006 46.1982 104.238 46.5674C104.475 46.932 104.594 47.39 104.594 47.9414V51.3867C104.594 51.6328 104.614 51.8949 104.655 52.1729C104.701 52.4508 104.767 52.6901 104.854 52.8906V53H103.534C103.47 52.8542 103.42 52.6605 103.384 52.4189C103.347 52.1729 103.329 51.945 103.329 51.7354ZM103.548 48.5156L103.562 49.4043H102.283C101.923 49.4043 101.602 49.4339 101.319 49.4932C101.037 49.5479 100.8 49.6322 100.608 49.7461C100.417 49.86 100.271 50.0036 100.171 50.1768C100.071 50.3454 100.021 50.5436 100.021 50.7715C100.021 51.0039 100.073 51.2158 100.178 51.4072C100.283 51.5986 100.44 51.7513 100.649 51.8652C100.864 51.9746 101.126 52.0293 101.436 52.0293C101.823 52.0293 102.165 51.9473 102.461 51.7832C102.757 51.6191 102.992 51.4186 103.165 51.1816C103.343 50.9447 103.438 50.7145 103.452 50.4912L103.992 51.0996C103.96 51.291 103.874 51.5029 103.732 51.7354C103.591 51.9678 103.402 52.1911 103.165 52.4053C102.933 52.6149 102.655 52.7904 102.331 52.9316C102.012 53.0684 101.652 53.1367 101.251 53.1367C100.75 53.1367 100.31 53.0387 99.9316 52.8428C99.5579 52.6468 99.2663 52.3848 99.0566 52.0566C98.8516 51.724 98.749 51.3525 98.749 50.9424C98.749 50.5459 98.8265 50.1973 98.9814 49.8965C99.1364 49.5911 99.3597 49.3382 99.6514 49.1377C99.943 48.9326 100.294 48.7777 100.704 48.6729C101.114 48.568 101.572 48.5156 102.078 48.5156H103.548ZM109.68 45.6035V46.5742H105.681V45.6035H109.68ZM107.034 43.8057H108.299V51.168C108.299 51.4186 108.338 51.6077 108.415 51.7354C108.493 51.863 108.593 51.9473 108.716 51.9883C108.839 52.0293 108.971 52.0498 109.112 52.0498C109.217 52.0498 109.326 52.0407 109.44 52.0225C109.559 51.9997 109.648 51.9814 109.707 51.9678L109.714 53C109.614 53.0319 109.481 53.0615 109.317 53.0889C109.158 53.1208 108.964 53.1367 108.736 53.1367C108.426 53.1367 108.142 53.0752 107.882 52.9521C107.622 52.8291 107.415 52.624 107.26 52.3369C107.109 52.0452 107.034 51.6533 107.034 51.1611V43.8057ZM114.232 53.1367C113.717 53.1367 113.25 53.0501 112.831 52.877C112.416 52.6992 112.059 52.4508 111.758 52.1318C111.462 51.8128 111.234 51.4346 111.074 50.9971C110.915 50.5596 110.835 50.0811 110.835 49.5615V49.2744C110.835 48.6729 110.924 48.1374 111.102 47.668C111.279 47.194 111.521 46.793 111.826 46.4648C112.132 46.1367 112.478 45.8883 112.865 45.7197C113.253 45.5511 113.654 45.4668 114.068 45.4668C114.597 45.4668 115.053 45.5579 115.436 45.7402C115.823 45.9225 116.14 46.1777 116.386 46.5059C116.632 46.8294 116.814 47.2122 116.933 47.6543C117.051 48.0918 117.11 48.5703 117.11 49.0898V49.6572H111.587V48.625H115.846V48.5293C115.827 48.2012 115.759 47.8822 115.641 47.5723C115.527 47.2624 115.344 47.0072 115.094 46.8066C114.843 46.6061 114.501 46.5059 114.068 46.5059C113.781 46.5059 113.517 46.5674 113.275 46.6904C113.034 46.8089 112.826 46.9867 112.653 47.2236C112.48 47.4606 112.346 47.75 112.25 48.0918C112.154 48.4336 112.106 48.8278 112.106 49.2744V49.5615C112.106 49.9124 112.154 50.2428 112.25 50.5527C112.35 50.8581 112.494 51.127 112.681 51.3594C112.872 51.5918 113.102 51.7741 113.371 51.9062C113.645 52.0384 113.954 52.1045 114.301 52.1045C114.747 52.1045 115.126 52.0133 115.436 51.8311C115.745 51.6488 116.017 51.4049 116.249 51.0996L117.015 51.708C116.855 51.9495 116.652 52.1797 116.406 52.3984C116.16 52.6172 115.857 52.7949 115.497 52.9316C115.142 53.0684 114.72 53.1367 114.232 53.1367ZM119.852 46.7656V53H118.587V45.6035H119.817L119.852 46.7656ZM122.162 45.5625L122.155 46.7383C122.05 46.7155 121.95 46.7018 121.854 46.6973C121.763 46.6882 121.659 46.6836 121.54 46.6836C121.248 46.6836 120.991 46.7292 120.768 46.8203C120.544 46.9115 120.355 47.0391 120.2 47.2031C120.045 47.3672 119.922 47.5632 119.831 47.791C119.744 48.0143 119.688 48.2604 119.66 48.5293L119.305 48.7344C119.305 48.2878 119.348 47.8685 119.435 47.4766C119.526 47.0846 119.665 46.7383 119.852 46.4375C120.038 46.1322 120.275 45.8952 120.562 45.7266C120.854 45.5534 121.201 45.4668 121.602 45.4668C121.693 45.4668 121.798 45.4782 121.916 45.501C122.035 45.5192 122.117 45.5397 122.162 45.5625ZM129.764 52.0977C130.064 52.0977 130.342 52.0361 130.598 51.9131C130.853 51.79 131.062 51.6214 131.227 51.4072C131.391 51.1885 131.484 50.9401 131.507 50.6621H132.71C132.687 51.0996 132.539 51.5075 132.266 51.8857C131.997 52.2594 131.644 52.5625 131.206 52.7949C130.769 53.0228 130.288 53.1367 129.764 53.1367C129.208 53.1367 128.722 53.0387 128.308 52.8428C127.897 52.6468 127.556 52.3779 127.282 52.0361C127.013 51.6943 126.811 51.3024 126.674 50.8604C126.542 50.4137 126.476 49.9421 126.476 49.4453V49.1582C126.476 48.6615 126.542 48.1921 126.674 47.75C126.811 47.3034 127.013 46.9092 127.282 46.5674C127.556 46.2256 127.897 45.9567 128.308 45.7607C128.722 45.5648 129.208 45.4668 129.764 45.4668C130.342 45.4668 130.848 45.5853 131.281 45.8223C131.714 46.0547 132.054 46.3737 132.3 46.7793C132.55 47.1803 132.687 47.6361 132.71 48.1465H131.507C131.484 47.8411 131.397 47.5654 131.247 47.3193C131.101 47.0732 130.901 46.8773 130.646 46.7314C130.395 46.5811 130.101 46.5059 129.764 46.5059C129.376 46.5059 129.05 46.5833 128.786 46.7383C128.526 46.8887 128.319 47.0938 128.164 47.3535C128.014 47.6087 127.904 47.8936 127.836 48.208C127.772 48.5179 127.74 48.8346 127.74 49.1582V49.4453C127.74 49.7689 127.772 50.0879 127.836 50.4023C127.9 50.7168 128.007 51.0016 128.157 51.2568C128.312 51.512 128.52 51.7171 128.779 51.8721C129.044 52.0225 129.372 52.0977 129.764 52.0977ZM133.797 49.3838V49.2266C133.797 48.6934 133.874 48.1989 134.029 47.7432C134.184 47.2829 134.408 46.8841 134.699 46.5469C134.991 46.2051 135.344 45.9408 135.759 45.7539C136.174 45.5625 136.638 45.4668 137.153 45.4668C137.673 45.4668 138.14 45.5625 138.555 45.7539C138.974 45.9408 139.329 46.2051 139.621 46.5469C139.917 46.8841 140.143 47.2829 140.298 47.7432C140.453 48.1989 140.53 48.6934 140.53 49.2266V49.3838C140.53 49.917 140.453 50.4115 140.298 50.8672C140.143 51.3229 139.917 51.7217 139.621 52.0635C139.329 52.4007 138.976 52.665 138.562 52.8564C138.151 53.0433 137.687 53.1367 137.167 53.1367C136.647 53.1367 136.18 53.0433 135.766 52.8564C135.351 52.665 134.995 52.4007 134.699 52.0635C134.408 51.7217 134.184 51.3229 134.029 50.8672C133.874 50.4115 133.797 49.917 133.797 49.3838ZM135.062 49.2266V49.3838C135.062 49.7529 135.105 50.1016 135.191 50.4297C135.278 50.7533 135.408 51.0404 135.581 51.291C135.759 51.5417 135.98 51.7399 136.244 51.8857C136.508 52.027 136.816 52.0977 137.167 52.0977C137.513 52.0977 137.816 52.027 138.076 51.8857C138.34 51.7399 138.559 51.5417 138.732 51.291C138.906 51.0404 139.035 50.7533 139.122 50.4297C139.213 50.1016 139.259 49.7529 139.259 49.3838V49.2266C139.259 48.862 139.213 48.5179 139.122 48.1943C139.035 47.8662 138.903 47.5768 138.726 47.3262C138.552 47.071 138.334 46.8704 138.069 46.7246C137.81 46.5788 137.504 46.5059 137.153 46.5059C136.807 46.5059 136.502 46.5788 136.237 46.7246C135.978 46.8704 135.759 47.071 135.581 47.3262C135.408 47.5768 135.278 47.8662 135.191 48.1943C135.105 48.5179 135.062 48.862 135.062 49.2266ZM146.642 51.291V45.6035H147.913V53H146.703L146.642 51.291ZM146.881 49.7324L147.407 49.7188C147.407 50.2109 147.355 50.6667 147.25 51.0859C147.15 51.5007 146.986 51.8607 146.758 52.166C146.53 52.4714 146.231 52.7106 145.862 52.8838C145.493 53.0524 145.044 53.1367 144.516 53.1367C144.156 53.1367 143.825 53.0843 143.524 52.9795C143.228 52.8747 142.973 52.7129 142.759 52.4941C142.545 52.2754 142.378 51.9906 142.26 51.6396C142.146 51.2887 142.089 50.8672 142.089 50.375V45.6035H143.354V50.3887C143.354 50.7214 143.39 50.9971 143.463 51.2158C143.54 51.43 143.643 51.6009 143.771 51.7285C143.903 51.8516 144.049 51.9382 144.208 51.9883C144.372 52.0384 144.541 52.0635 144.714 52.0635C145.252 52.0635 145.678 51.9609 145.992 51.7559C146.307 51.5462 146.532 51.266 146.669 50.915C146.81 50.5596 146.881 50.1654 146.881 49.7324ZM152.801 52.0977C153.102 52.0977 153.38 52.0361 153.635 51.9131C153.89 51.79 154.1 51.6214 154.264 51.4072C154.428 51.1885 154.521 50.9401 154.544 50.6621H155.747C155.724 51.0996 155.576 51.5075 155.303 51.8857C155.034 52.2594 154.681 52.5625 154.243 52.7949C153.806 53.0228 153.325 53.1367 152.801 53.1367C152.245 53.1367 151.759 53.0387 151.345 52.8428C150.935 52.6468 150.593 52.3779 150.319 52.0361C150.05 51.6943 149.848 51.3024 149.711 50.8604C149.579 50.4137 149.513 49.9421 149.513 49.4453V49.1582C149.513 48.6615 149.579 48.1921 149.711 47.75C149.848 47.3034 150.05 46.9092 150.319 46.5674C150.593 46.2256 150.935 45.9567 151.345 45.7607C151.759 45.5648 152.245 45.4668 152.801 45.4668C153.38 45.4668 153.885 45.5853 154.318 45.8223C154.751 46.0547 155.091 46.3737 155.337 46.7793C155.588 47.1803 155.724 47.6361 155.747 48.1465H154.544C154.521 47.8411 154.435 47.5654 154.284 47.3193C154.138 47.0732 153.938 46.8773 153.683 46.7314C153.432 46.5811 153.138 46.5059 152.801 46.5059C152.413 46.5059 152.088 46.5833 151.823 46.7383C151.563 46.8887 151.356 47.0938 151.201 47.3535C151.051 47.6087 150.941 47.8936 150.873 48.208C150.809 48.5179 150.777 48.8346 150.777 49.1582V49.4453C150.777 49.7689 150.809 50.0879 150.873 50.4023C150.937 50.7168 151.044 51.0016 151.194 51.2568C151.349 51.512 151.557 51.7171 151.816 51.8721C152.081 52.0225 152.409 52.0977 152.801 52.0977ZM158.434 42.5V53H157.169V42.5H158.434ZM158.133 49.0215L157.606 49.001C157.611 48.4951 157.686 48.028 157.832 47.5996C157.978 47.1667 158.183 46.7907 158.447 46.4717C158.712 46.1527 159.026 45.9066 159.391 45.7334C159.76 45.5557 160.168 45.4668 160.614 45.4668C160.979 45.4668 161.307 45.5169 161.599 45.6172C161.89 45.7129 162.139 45.8678 162.344 46.082C162.553 46.2962 162.713 46.5742 162.822 46.916C162.932 47.2533 162.986 47.6657 162.986 48.1533V53H161.715V48.1396C161.715 47.7523 161.658 47.4424 161.544 47.21C161.43 46.973 161.264 46.8021 161.045 46.6973C160.826 46.5879 160.557 46.5332 160.238 46.5332C159.924 46.5332 159.637 46.5993 159.377 46.7314C159.122 46.8636 158.901 47.0459 158.714 47.2783C158.532 47.5107 158.388 47.7773 158.283 48.0781C158.183 48.3743 158.133 48.6888 158.133 49.0215Z" fill="#222222"/>
</g>
<path d="M1074 42L1062 54M1062 42L1074 54" stroke="#222222" stroke-width="2" stroke-linecap="round" stroke-linejoin="round"/>
<path d="M1104 33.4588C1104 28.2349 1108.23 24 1113.46 24H1254.34C1259.57 24 1263.8 28.2349 1263.8 33.4588V62.5412C1263.8 67.7651 1259.57 72 1254.34 72H1113.46C1108.23 72 1104 67.7651 1104 62.5412V33.4588Z" fill="#148FE2"/>
<path d="M1156.8 56.4002L1152.16 51.7602M1154.67 45.7335C1154.67 50.4464 1150.85 54.2669 1146.13 54.2669C1141.42 54.2669 1137.6 50.4464 1137.6 45.7335C1137.6 41.0207 1141.42 37.2002 1146.13 37.2002C1150.85 37.2002 1154.67 41.0207 1154.67 45.7335Z" stroke="white" stroke-width="2.4" stroke-linecap="round" stroke-linejoin="round"/>
<path d="M1184.86 51.05C1184.86 50.7312 1184.81 50.45 1184.71 50.2062C1184.62 49.9562 1184.45 49.7312 1184.2 49.5312C1183.97 49.3312 1183.63 49.1406 1183.21 48.9594C1182.79 48.7781 1182.26 48.5937 1181.62 48.4062C1180.94 48.2062 1180.33 47.9844 1179.79 47.7406C1179.24 47.4906 1178.78 47.2062 1178.39 46.8875C1178 46.5687 1177.71 46.2031 1177.5 45.7906C1177.29 45.3781 1177.19 44.9062 1177.19 44.375C1177.19 43.8437 1177.3 43.3531 1177.52 42.9031C1177.74 42.4531 1178.05 42.0625 1178.46 41.7312C1178.87 41.3937 1179.36 41.1312 1179.93 40.9437C1180.5 40.7562 1181.13 40.6625 1181.83 40.6625C1182.86 40.6625 1183.73 40.8594 1184.44 41.2531C1185.16 41.6406 1185.7 42.15 1186.08 42.7812C1186.45 43.4062 1186.64 44.075 1186.64 44.7875H1184.84C1184.84 44.275 1184.73 43.8219 1184.51 43.4281C1184.29 43.0281 1183.96 42.7156 1183.52 42.4906C1183.08 42.2594 1182.51 42.1437 1181.83 42.1437C1181.19 42.1437 1180.66 42.2406 1180.24 42.4344C1179.82 42.6281 1179.51 42.8906 1179.3 43.2219C1179.1 43.5531 1179 43.9312 1179 44.3562C1179 44.6437 1179.06 44.9062 1179.18 45.1437C1179.3 45.375 1179.49 45.5906 1179.75 45.7906C1180.01 45.9906 1180.34 46.175 1180.74 46.3437C1181.15 46.5125 1181.63 46.675 1182.2 46.8312C1182.97 47.05 1183.64 47.2937 1184.2 47.5625C1184.77 47.8312 1185.23 48.1344 1185.59 48.4719C1185.96 48.8031 1186.23 49.1812 1186.41 49.6062C1186.59 50.025 1186.68 50.5 1186.68 51.0312C1186.68 51.5875 1186.57 52.0906 1186.34 52.5406C1186.12 52.9906 1185.79 53.375 1185.38 53.6937C1184.96 54.0125 1184.45 54.2594 1183.87 54.4344C1183.28 54.6031 1182.63 54.6875 1181.92 54.6875C1181.28 54.6875 1180.66 54.6 1180.05 54.425C1179.44 54.25 1178.89 53.9875 1178.39 53.6375C1177.9 53.2875 1177.5 52.8562 1177.2 52.3437C1176.91 51.825 1176.76 51.225 1176.76 50.5437H1178.56C1178.56 51.0125 1178.65 51.4156 1178.83 51.7531C1179.01 52.0844 1179.26 52.3594 1179.57 52.5781C1179.89 52.7969 1180.25 52.9594 1180.65 53.0656C1181.06 53.1656 1181.48 53.2156 1181.92 53.2156C1182.55 53.2156 1183.08 53.1281 1183.52 52.9531C1183.96 52.7781 1184.29 52.5281 1184.51 52.2031C1184.74 51.8781 1184.86 51.4937 1184.86 51.05ZM1192.93 54.6875C1192.23 54.6875 1191.58 54.5688 1191.01 54.3312C1190.44 54.0875 1189.95 53.7469 1189.54 53.3094C1189.13 52.8719 1188.82 52.3531 1188.6 51.7531C1188.38 51.1531 1188.27 50.4969 1188.27 49.7844V49.3906C1188.27 48.5656 1188.39 47.8312 1188.64 47.1875C1188.88 46.5375 1189.21 45.9875 1189.63 45.5375C1190.05 45.0875 1190.53 44.7469 1191.06 44.5156C1191.59 44.2844 1192.14 44.1687 1192.71 44.1687C1193.43 44.1687 1194.06 44.2937 1194.58 44.5437C1195.11 44.7937 1195.55 45.1437 1195.88 45.5937C1196.22 46.0375 1196.47 46.5625 1196.63 47.1687C1196.8 47.7687 1196.88 48.425 1196.88 49.1375V49.9156H1189.3V48.5H1195.14V48.3687C1195.12 47.9187 1195.03 47.4812 1194.86 47.0562C1194.71 46.6312 1194.46 46.2812 1194.11 46.0062C1193.77 45.7312 1193.3 45.5937 1192.71 45.5937C1192.31 45.5937 1191.95 45.6781 1191.62 45.8469C1191.29 46.0094 1191 46.2531 1190.77 46.5781C1190.53 46.9031 1190.34 47.3 1190.21 47.7687C1190.08 48.2375 1190.02 48.7781 1190.02 49.3906V49.7844C1190.02 50.2656 1190.08 50.7187 1190.21 51.1437C1190.35 51.5625 1190.55 51.9312 1190.8 52.25C1191.07 52.5687 1191.38 52.8187 1191.75 53C1192.13 53.1812 1192.55 53.2719 1193.03 53.2719C1193.64 53.2719 1194.16 53.1469 1194.58 52.8969C1195.01 52.6469 1195.38 52.3125 1195.7 51.8937L1196.75 52.7281C1196.53 53.0594 1196.25 53.375 1195.91 53.675C1195.58 53.975 1195.16 54.2187 1194.67 54.4062C1194.18 54.5938 1193.6 54.6875 1192.93 54.6875ZM1204.88 52.7656V47.5437C1204.88 47.1437 1204.8 46.7969 1204.64 46.5031C1204.48 46.2031 1204.25 45.9719 1203.93 45.8094C1203.61 45.6469 1203.22 45.5656 1202.75 45.5656C1202.31 45.5656 1201.93 45.6406 1201.59 45.7906C1201.27 45.9406 1201.01 46.1375 1200.83 46.3812C1200.64 46.625 1200.55 46.8875 1200.55 47.1687H1198.82C1198.82 46.8062 1198.91 46.4469 1199.1 46.0906C1199.29 45.7344 1199.56 45.4125 1199.91 45.125C1200.26 44.8312 1200.69 44.6 1201.18 44.4312C1201.68 44.2562 1202.24 44.1687 1202.85 44.1687C1203.59 44.1687 1204.24 44.2937 1204.8 44.5437C1205.37 44.7937 1205.81 45.1719 1206.13 45.6781C1206.46 46.1781 1206.62 46.8062 1206.62 47.5625V52.2875C1206.62 52.625 1206.65 52.9844 1206.7 53.3656C1206.77 53.7469 1206.86 54.075 1206.98 54.35V54.5H1205.17C1205.08 54.3 1205.01 54.0344 1204.96 53.7031C1204.91 53.3656 1204.88 53.0531 1204.88 52.7656ZM1205.18 48.35L1205.2 49.5687H1203.45C1202.96 49.5687 1202.52 49.6094 1202.13 49.6906C1201.74 49.7656 1201.42 49.8812 1201.15 50.0375C1200.89 50.1937 1200.69 50.3906 1200.55 50.6281C1200.42 50.8594 1200.35 51.1312 1200.35 51.4437C1200.35 51.7625 1200.42 52.0531 1200.56 52.3156C1200.71 52.5781 1200.92 52.7875 1201.21 52.9437C1201.5 53.0937 1201.86 53.1687 1202.29 53.1687C1202.82 53.1687 1203.29 53.0562 1203.69 52.8312C1204.1 52.6062 1204.42 52.3312 1204.66 52.0062C1204.9 51.6812 1205.03 51.3656 1205.05 51.0594L1205.79 51.8937C1205.75 52.1562 1205.63 52.4469 1205.44 52.7656C1205.24 53.0844 1204.98 53.3906 1204.66 53.6844C1204.34 53.9719 1203.96 54.2125 1203.52 54.4062C1203.08 54.5938 1202.58 54.6875 1202.03 54.6875C1201.35 54.6875 1200.74 54.5531 1200.23 54.2844C1199.71 54.0156 1199.31 53.6562 1199.03 53.2062C1198.74 52.75 1198.6 52.2406 1198.6 51.6781C1198.6 51.1344 1198.71 50.6562 1198.92 50.2437C1199.13 49.825 1199.44 49.4781 1199.84 49.2031C1200.24 48.9219 1200.72 48.7094 1201.28 48.5656C1201.85 48.4219 1202.48 48.35 1203.17 48.35H1205.18ZM1211.08 45.95V54.5H1209.35V44.3562H1211.03L1211.08 45.95ZM1214.25 44.3L1214.24 45.9125C1214.1 45.8812 1213.96 45.8625 1213.83 45.8562C1213.7 45.8437 1213.56 45.8375 1213.4 45.8375C1213 45.8375 1212.64 45.9 1212.34 46.025C1212.03 46.15 1211.77 46.325 1211.56 46.55C1211.35 46.775 1211.18 47.0437 1211.05 47.3562C1210.93 47.6625 1210.86 48 1210.82 48.3687L1210.33 48.65C1210.33 48.0375 1210.39 47.4625 1210.51 46.925C1210.63 46.3875 1210.83 45.9125 1211.08 45.5C1211.34 45.0812 1211.66 44.7562 1212.06 44.525C1212.46 44.2875 1212.93 44.1687 1213.48 44.1687C1213.61 44.1687 1213.75 44.1844 1213.91 44.2156C1214.08 44.2406 1214.19 44.2687 1214.25 44.3ZM1219.73 53.2625C1220.14 53.2625 1220.52 53.1781 1220.87 53.0094C1221.22 52.8406 1221.51 52.6094 1221.73 52.3156C1221.96 52.0156 1222.08 51.675 1222.12 51.2937H1223.77C1223.73 51.8937 1223.53 52.4531 1223.16 52.9719C1222.79 53.4844 1222.3 53.9 1221.7 54.2187C1221.1 54.5313 1220.44 54.6875 1219.73 54.6875C1218.96 54.6875 1218.3 54.5531 1217.73 54.2844C1217.17 54.0156 1216.7 53.6469 1216.32 53.1781C1215.95 52.7094 1215.68 52.1719 1215.49 51.5656C1215.31 50.9531 1215.22 50.3062 1215.22 49.625V49.2312C1215.22 48.55 1215.31 47.9062 1215.49 47.3C1215.68 46.6875 1215.95 46.1469 1216.32 45.6781C1216.7 45.2094 1217.17 44.8406 1217.73 44.5719C1218.3 44.3031 1218.96 44.1687 1219.73 44.1687C1220.52 44.1687 1221.21 44.3312 1221.81 44.6562C1222.4 44.975 1222.87 45.4125 1223.2 45.9687C1223.55 46.5187 1223.73 47.1437 1223.77 47.8437H1222.12C1222.08 47.425 1221.97 47.0469 1221.76 46.7094C1221.56 46.3719 1221.28 46.1031 1220.93 45.9031C1220.59 45.6969 1220.19 45.5937 1219.73 45.5937C1219.19 45.5937 1218.75 45.7 1218.38 45.9125C1218.03 46.1187 1217.74 46.4 1217.53 46.7562C1217.33 47.1062 1217.18 47.4969 1217.08 47.9281C1216.99 48.3531 1216.95 48.7875 1216.95 49.2312V49.625C1216.95 50.0687 1216.99 50.5062 1217.08 50.9375C1217.17 51.3687 1217.32 51.7594 1217.52 52.1094C1217.73 52.4594 1218.02 52.7406 1218.38 52.9531C1218.74 53.1594 1219.19 53.2625 1219.73 53.2625ZM1227.45 40.1V54.5H1225.72V40.1H1227.45ZM1227.04 49.0437L1226.32 49.0156C1226.32 48.3219 1226.43 47.6812 1226.63 47.0937C1226.83 46.5 1227.11 45.9844 1227.47 45.5469C1227.83 45.1094 1228.26 44.7719 1228.76 44.5344C1229.27 44.2906 1229.83 44.1687 1230.44 44.1687C1230.94 44.1687 1231.39 44.2375 1231.79 44.375C1232.19 44.5062 1232.53 44.7187 1232.81 45.0125C1233.1 45.3062 1233.32 45.6875 1233.47 46.1562C1233.62 46.6187 1233.69 47.1844 1233.69 47.8531V54.5H1231.95V47.8344C1231.95 47.3031 1231.87 46.8781 1231.72 46.5594C1231.56 46.2344 1231.33 46 1231.03 45.8562C1230.73 45.7062 1230.36 45.6312 1229.93 45.6312C1229.49 45.6312 1229.1 45.7219 1228.74 45.9031C1228.39 46.0844 1228.09 46.3344 1227.83 46.6531C1227.58 46.9719 1227.39 47.3375 1227.24 47.75C1227.11 48.1562 1227.04 48.5875 1227.04 49.0437Z" fill="white"/>
<line x1="163.4" y1="36" x2="163.4" y2="60" stroke="#666666" stroke-width="0.8"/>
<g filter="url(#filter0_d_375_87027)">
<path d="M24 88C24 85.7909 25.7909 84 28 84H308C310.209 84 312 85.7909 312 88V128C312 130.209 310.209 132 308 132H28C25.7909 132 24 130.209 24 128V88Z" fill="white" shape-rendering="crispEdges"/>
<path d="M25 88C25 86.3431 26.3431 85 28 85H308C309.657 85 311 86.3431 311 88V128C311 129.657 309.657 131 308 131H28C26.3431 131 25 129.657 25 128V88Z" stroke="#4D80E5" stroke-width="2" shape-rendering="crispEdges"/>
<g clip-path="url(#clip1_375_87027)">
<path d="M40.7031 108.345H38.1807L38.167 107.285H40.457C40.8353 107.285 41.1657 107.221 41.4482 107.094C41.7308 106.966 41.9495 106.784 42.1045 106.547C42.264 106.305 42.3438 106.018 42.3438 105.686C42.3438 105.321 42.2731 105.025 42.1318 104.797C41.9951 104.564 41.7832 104.396 41.4961 104.291C41.2135 104.182 40.8535 104.127 40.416 104.127H38.4746V113H37.1553V103.047H40.416C40.9264 103.047 41.3822 103.099 41.7832 103.204C42.1842 103.304 42.5238 103.464 42.8018 103.683C43.0843 103.897 43.2985 104.17 43.4443 104.503C43.5902 104.836 43.6631 105.234 43.6631 105.699C43.6631 106.109 43.5583 106.481 43.3486 106.813C43.139 107.142 42.8473 107.41 42.4736 107.62C42.1045 107.83 41.6715 107.964 41.1748 108.023L40.7031 108.345ZM40.6416 113H37.6611L38.4062 111.927H40.6416C41.0609 111.927 41.4163 111.854 41.708 111.708C42.0042 111.562 42.2298 111.357 42.3848 111.093C42.5397 110.824 42.6172 110.507 42.6172 110.143C42.6172 109.773 42.5511 109.454 42.4189 109.186C42.2868 108.917 42.0794 108.709 41.7969 108.563C41.5143 108.418 41.1497 108.345 40.7031 108.345H38.8232L38.8369 107.285H41.4072L41.6875 107.668C42.166 107.709 42.5716 107.846 42.9043 108.078C43.237 108.306 43.4899 108.598 43.6631 108.953C43.8408 109.309 43.9297 109.701 43.9297 110.129C43.9297 110.749 43.793 111.273 43.5195 111.701C43.2507 112.125 42.8701 112.449 42.3779 112.672C41.8857 112.891 41.307 113 40.6416 113ZM46.9512 106.766V113H45.6865V105.604H46.917L46.9512 106.766ZM49.2617 105.562L49.2549 106.738C49.1501 106.715 49.0498 106.702 48.9541 106.697C48.863 106.688 48.7581 106.684 48.6396 106.684C48.348 106.684 48.0905 106.729 47.8672 106.82C47.6439 106.911 47.4548 107.039 47.2998 107.203C47.1449 107.367 47.0218 107.563 46.9307 107.791C46.8441 108.014 46.7871 108.26 46.7598 108.529L46.4043 108.734C46.4043 108.288 46.4476 107.868 46.5342 107.477C46.6253 107.085 46.7643 106.738 46.9512 106.438C47.138 106.132 47.375 105.895 47.6621 105.727C47.9538 105.553 48.3001 105.467 48.7012 105.467C48.7923 105.467 48.8971 105.478 49.0156 105.501C49.1341 105.519 49.2161 105.54 49.2617 105.562ZM49.959 109.384V109.227C49.959 108.693 50.0365 108.199 50.1914 107.743C50.3464 107.283 50.5697 106.884 50.8613 106.547C51.153 106.205 51.5062 105.941 51.9209 105.754C52.3356 105.562 52.8005 105.467 53.3154 105.467C53.835 105.467 54.3021 105.562 54.7168 105.754C55.1361 105.941 55.4915 106.205 55.7832 106.547C56.0794 106.884 56.305 107.283 56.46 107.743C56.6149 108.199 56.6924 108.693 56.6924 109.227V109.384C56.6924 109.917 56.6149 110.411 56.46 110.867C56.305 111.323 56.0794 111.722 55.7832 112.063C55.4915 112.401 55.1383 112.665 54.7236 112.856C54.3135 113.043 53.8486 113.137 53.3291 113.137C52.8096 113.137 52.3424 113.043 51.9277 112.856C51.513 112.665 51.1576 112.401 50.8613 112.063C50.5697 111.722 50.3464 111.323 50.1914 110.867C50.0365 110.411 49.959 109.917 49.959 109.384ZM51.2236 109.227V109.384C51.2236 109.753 51.2669 110.102 51.3535 110.43C51.4401 110.753 51.57 111.04 51.7432 111.291C51.9209 111.542 52.1419 111.74 52.4062 111.886C52.6706 112.027 52.9782 112.098 53.3291 112.098C53.6755 112.098 53.9785 112.027 54.2383 111.886C54.5026 111.74 54.7214 111.542 54.8945 111.291C55.0677 111.04 55.1976 110.753 55.2842 110.43C55.3753 110.102 55.4209 109.753 55.4209 109.384V109.227C55.4209 108.862 55.3753 108.518 55.2842 108.194C55.1976 107.866 55.0654 107.577 54.8877 107.326C54.7145 107.071 54.4958 106.87 54.2314 106.725C53.9717 106.579 53.6663 106.506 53.3154 106.506C52.9691 106.506 52.6637 106.579 52.3994 106.725C52.1396 106.87 51.9209 107.071 51.7432 107.326C51.57 107.577 51.4401 107.866 51.3535 108.194C51.2669 108.518 51.2236 108.862 51.2236 109.227ZM60.1514 111.688L62.0518 105.604H62.8857L62.7217 106.813L60.7871 113H59.9736L60.1514 111.688ZM58.873 105.604L60.4932 111.756L60.6094 113H59.7549L57.6084 105.604H58.873ZM64.7041 111.708L66.249 105.604H67.5068L65.3604 113H64.5127L64.7041 111.708ZM63.0703 105.604L64.9297 111.585L65.1416 113H64.335L62.3457 106.8L62.1816 105.604H63.0703ZM73.1123 111.038C73.1123 110.856 73.0713 110.687 72.9893 110.532C72.9118 110.373 72.75 110.229 72.5039 110.102C72.2624 109.969 71.8978 109.855 71.4102 109.76C71 109.673 70.6286 109.571 70.2959 109.452C69.9678 109.334 69.6875 109.19 69.4551 109.021C69.2272 108.853 69.0518 108.655 68.9287 108.427C68.8057 108.199 68.7441 107.932 68.7441 107.627C68.7441 107.335 68.8079 107.06 68.9355 106.8C69.0677 106.54 69.2523 106.31 69.4893 106.109C69.7308 105.909 70.0202 105.752 70.3574 105.638C70.6947 105.524 71.0706 105.467 71.4854 105.467C72.0778 105.467 72.5837 105.572 73.0029 105.781C73.4222 105.991 73.7435 106.271 73.9668 106.622C74.1901 106.968 74.3018 107.354 74.3018 107.777H73.0371C73.0371 107.572 72.9756 107.374 72.8525 107.183C72.734 106.987 72.5586 106.825 72.3262 106.697C72.0983 106.57 71.818 106.506 71.4854 106.506C71.1344 106.506 70.8496 106.561 70.6309 106.67C70.4167 106.775 70.2594 106.909 70.1592 107.073C70.0635 107.237 70.0156 107.41 70.0156 107.593C70.0156 107.729 70.0384 107.853 70.084 107.962C70.1341 108.067 70.2207 108.165 70.3438 108.256C70.4668 108.342 70.64 108.424 70.8633 108.502C71.0866 108.579 71.3714 108.657 71.7178 108.734C72.3239 108.871 72.8229 109.035 73.2148 109.227C73.6068 109.418 73.8984 109.653 74.0898 109.931C74.2812 110.209 74.377 110.546 74.377 110.942C74.377 111.266 74.3086 111.562 74.1719 111.831C74.0397 112.1 73.846 112.332 73.5908 112.528C73.3402 112.72 73.0394 112.87 72.6885 112.979C72.3421 113.084 71.9525 113.137 71.5195 113.137C70.8678 113.137 70.3164 113.021 69.8652 112.788C69.4141 112.556 69.0723 112.255 68.8398 111.886C68.6074 111.517 68.4912 111.127 68.4912 110.717H69.7627C69.7809 111.063 69.8812 111.339 70.0635 111.544C70.2458 111.744 70.4691 111.888 70.7334 111.975C70.9977 112.057 71.2598 112.098 71.5195 112.098C71.8659 112.098 72.1553 112.052 72.3877 111.961C72.6247 111.87 72.8047 111.744 72.9277 111.585C73.0508 111.425 73.1123 111.243 73.1123 111.038ZM79.1074 113.137C78.5924 113.137 78.1253 113.05 77.7061 112.877C77.2913 112.699 76.9336 112.451 76.6328 112.132C76.3366 111.813 76.1087 111.435 75.9492 110.997C75.7897 110.56 75.71 110.081 75.71 109.562V109.274C75.71 108.673 75.7988 108.137 75.9766 107.668C76.1543 107.194 76.3958 106.793 76.7012 106.465C77.0065 106.137 77.3529 105.888 77.7402 105.72C78.1276 105.551 78.5286 105.467 78.9434 105.467C79.472 105.467 79.9277 105.558 80.3105 105.74C80.6979 105.923 81.0146 106.178 81.2607 106.506C81.5068 106.829 81.6891 107.212 81.8076 107.654C81.9261 108.092 81.9854 108.57 81.9854 109.09V109.657H76.4619V108.625H80.7207V108.529C80.7025 108.201 80.6341 107.882 80.5156 107.572C80.4017 107.262 80.2194 107.007 79.9688 106.807C79.7181 106.606 79.3763 106.506 78.9434 106.506C78.6562 106.506 78.3919 106.567 78.1504 106.69C77.9089 106.809 77.7015 106.987 77.5283 107.224C77.3551 107.461 77.2207 107.75 77.125 108.092C77.0293 108.434 76.9814 108.828 76.9814 109.274V109.562C76.9814 109.912 77.0293 110.243 77.125 110.553C77.2253 110.858 77.3688 111.127 77.5557 111.359C77.7471 111.592 77.9772 111.774 78.2461 111.906C78.5195 112.038 78.8294 112.104 79.1758 112.104C79.6224 112.104 80.0007 112.013 80.3105 111.831C80.6204 111.649 80.8916 111.405 81.124 111.1L81.8896 111.708C81.7301 111.95 81.5273 112.18 81.2812 112.398C81.0352 112.617 80.7321 112.795 80.3721 112.932C80.0166 113.068 79.5951 113.137 79.1074 113.137ZM86.9277 102.5H88.1992V111.564L88.0898 113H86.9277V102.5ZM93.1963 109.24V109.384C93.1963 109.922 93.1325 110.421 93.0049 110.881C92.8773 111.337 92.6904 111.733 92.4443 112.07C92.1982 112.408 91.8975 112.67 91.542 112.856C91.1865 113.043 90.7786 113.137 90.3184 113.137C89.849 113.137 89.4365 113.057 89.0811 112.897C88.7301 112.733 88.4339 112.499 88.1924 112.193C87.9508 111.888 87.7572 111.519 87.6113 111.086C87.4701 110.653 87.3721 110.165 87.3174 109.623V108.994C87.3721 108.447 87.4701 107.957 87.6113 107.524C87.7572 107.091 87.9508 106.722 88.1924 106.417C88.4339 106.107 88.7301 105.872 89.0811 105.713C89.432 105.549 89.8398 105.467 90.3047 105.467C90.7695 105.467 91.182 105.558 91.542 105.74C91.902 105.918 92.2028 106.173 92.4443 106.506C92.6904 106.839 92.8773 107.237 93.0049 107.702C93.1325 108.162 93.1963 108.675 93.1963 109.24ZM91.9248 109.384V109.24C91.9248 108.871 91.8906 108.525 91.8223 108.201C91.7539 107.873 91.6445 107.586 91.4941 107.34C91.3438 107.089 91.1455 106.893 90.8994 106.752C90.6533 106.606 90.3503 106.533 89.9902 106.533C89.6712 106.533 89.3932 106.588 89.1562 106.697C88.9238 106.807 88.7256 106.955 88.5615 107.142C88.3975 107.324 88.263 107.534 88.1582 107.771C88.0579 108.003 87.9827 108.244 87.9326 108.495V110.143C88.0055 110.462 88.124 110.769 88.2881 111.065C88.4567 111.357 88.68 111.596 88.958 111.783C89.2406 111.97 89.5892 112.063 90.0039 112.063C90.3457 112.063 90.6374 111.995 90.8789 111.858C91.125 111.717 91.3232 111.523 91.4736 111.277C91.6286 111.031 91.7425 110.746 91.8154 110.423C91.8883 110.099 91.9248 109.753 91.9248 109.384ZM96.792 112.234L98.8496 105.604H100.203L97.2363 114.142C97.168 114.324 97.0768 114.52 96.9629 114.729C96.8535 114.944 96.7122 115.146 96.5391 115.338C96.3659 115.529 96.1562 115.684 95.9102 115.803C95.6686 115.926 95.3792 115.987 95.042 115.987C94.9417 115.987 94.8141 115.974 94.6592 115.946C94.5042 115.919 94.3949 115.896 94.3311 115.878L94.3242 114.853C94.3607 114.857 94.4176 114.862 94.4951 114.866C94.5771 114.875 94.6341 114.88 94.666 114.88C94.9531 114.88 95.1969 114.841 95.3975 114.764C95.598 114.691 95.7666 114.565 95.9033 114.388C96.0446 114.215 96.1654 113.975 96.2656 113.67L96.792 112.234ZM95.2812 105.604L97.2021 111.346L97.5303 112.679L96.6211 113.144L93.9004 105.604H95.2812ZM107.777 112.098C108.078 112.098 108.356 112.036 108.611 111.913C108.867 111.79 109.076 111.621 109.24 111.407C109.404 111.188 109.498 110.94 109.521 110.662H110.724C110.701 111.1 110.553 111.507 110.279 111.886C110.01 112.259 109.657 112.562 109.22 112.795C108.782 113.023 108.301 113.137 107.777 113.137C107.221 113.137 106.736 113.039 106.321 112.843C105.911 112.647 105.569 112.378 105.296 112.036C105.027 111.694 104.824 111.302 104.688 110.86C104.555 110.414 104.489 109.942 104.489 109.445V109.158C104.489 108.661 104.555 108.192 104.688 107.75C104.824 107.303 105.027 106.909 105.296 106.567C105.569 106.226 105.911 105.957 106.321 105.761C106.736 105.565 107.221 105.467 107.777 105.467C108.356 105.467 108.862 105.585 109.295 105.822C109.728 106.055 110.067 106.374 110.313 106.779C110.564 107.18 110.701 107.636 110.724 108.146H109.521C109.498 107.841 109.411 107.565 109.261 107.319C109.115 107.073 108.914 106.877 108.659 106.731C108.409 106.581 108.115 106.506 107.777 106.506C107.39 106.506 107.064 106.583 106.8 106.738C106.54 106.889 106.333 107.094 106.178 107.354C106.027 107.609 105.918 107.894 105.85 108.208C105.786 108.518 105.754 108.835 105.754 109.158V109.445C105.754 109.769 105.786 110.088 105.85 110.402C105.913 110.717 106.021 111.002 106.171 111.257C106.326 111.512 106.533 111.717 106.793 111.872C107.057 112.022 107.385 112.098 107.777 112.098ZM116.507 111.735V107.928C116.507 107.636 116.448 107.383 116.329 107.169C116.215 106.95 116.042 106.782 115.81 106.663C115.577 106.545 115.29 106.485 114.948 106.485C114.629 106.485 114.349 106.54 114.107 106.649C113.87 106.759 113.684 106.902 113.547 107.08C113.415 107.258 113.349 107.449 113.349 107.654H112.084C112.084 107.39 112.152 107.128 112.289 106.868C112.426 106.608 112.622 106.374 112.877 106.164C113.137 105.95 113.447 105.781 113.807 105.658C114.171 105.531 114.577 105.467 115.023 105.467C115.561 105.467 116.035 105.558 116.445 105.74C116.86 105.923 117.184 106.198 117.416 106.567C117.653 106.932 117.771 107.39 117.771 107.941V111.387C117.771 111.633 117.792 111.895 117.833 112.173C117.879 112.451 117.945 112.69 118.031 112.891V113H116.712C116.648 112.854 116.598 112.66 116.562 112.419C116.525 112.173 116.507 111.945 116.507 111.735ZM116.726 108.516L116.739 109.404H115.461C115.101 109.404 114.78 109.434 114.497 109.493C114.215 109.548 113.978 109.632 113.786 109.746C113.595 109.86 113.449 110.004 113.349 110.177C113.248 110.345 113.198 110.544 113.198 110.771C113.198 111.004 113.251 111.216 113.355 111.407C113.46 111.599 113.618 111.751 113.827 111.865C114.041 111.975 114.303 112.029 114.613 112.029C115.001 112.029 115.342 111.947 115.639 111.783C115.935 111.619 116.17 111.419 116.343 111.182C116.521 110.945 116.616 110.715 116.63 110.491L117.17 111.1C117.138 111.291 117.051 111.503 116.91 111.735C116.769 111.968 116.58 112.191 116.343 112.405C116.11 112.615 115.832 112.79 115.509 112.932C115.19 113.068 114.83 113.137 114.429 113.137C113.927 113.137 113.488 113.039 113.109 112.843C112.736 112.647 112.444 112.385 112.234 112.057C112.029 111.724 111.927 111.353 111.927 110.942C111.927 110.546 112.004 110.197 112.159 109.896C112.314 109.591 112.537 109.338 112.829 109.138C113.121 108.933 113.472 108.778 113.882 108.673C114.292 108.568 114.75 108.516 115.256 108.516H116.726ZM122.857 105.604V106.574H118.858V105.604H122.857ZM120.212 103.806H121.477V111.168C121.477 111.419 121.515 111.608 121.593 111.735C121.67 111.863 121.771 111.947 121.894 111.988C122.017 112.029 122.149 112.05 122.29 112.05C122.395 112.05 122.504 112.041 122.618 112.022C122.737 112 122.826 111.981 122.885 111.968L122.892 113C122.791 113.032 122.659 113.062 122.495 113.089C122.336 113.121 122.142 113.137 121.914 113.137C121.604 113.137 121.319 113.075 121.06 112.952C120.8 112.829 120.592 112.624 120.438 112.337C120.287 112.045 120.212 111.653 120.212 111.161V103.806ZM127.41 113.137C126.895 113.137 126.428 113.05 126.009 112.877C125.594 112.699 125.236 112.451 124.936 112.132C124.639 111.813 124.411 111.435 124.252 110.997C124.092 110.56 124.013 110.081 124.013 109.562V109.274C124.013 108.673 124.102 108.137 124.279 107.668C124.457 107.194 124.699 106.793 125.004 106.465C125.309 106.137 125.656 105.888 126.043 105.72C126.43 105.551 126.831 105.467 127.246 105.467C127.775 105.467 128.23 105.558 128.613 105.74C129.001 105.923 129.317 106.178 129.563 106.506C129.81 106.829 129.992 107.212 130.11 107.654C130.229 108.092 130.288 108.57 130.288 109.09V109.657H124.765V108.625H129.023V108.529C129.005 108.201 128.937 107.882 128.818 107.572C128.704 107.262 128.522 107.007 128.271 106.807C128.021 106.606 127.679 106.506 127.246 106.506C126.959 106.506 126.695 106.567 126.453 106.69C126.212 106.809 126.004 106.987 125.831 107.224C125.658 107.461 125.523 107.75 125.428 108.092C125.332 108.434 125.284 108.828 125.284 109.274V109.562C125.284 109.912 125.332 110.243 125.428 110.553C125.528 110.858 125.672 111.127 125.858 111.359C126.05 111.592 126.28 111.774 126.549 111.906C126.822 112.038 127.132 112.104 127.479 112.104C127.925 112.104 128.303 112.013 128.613 111.831C128.923 111.649 129.194 111.405 129.427 111.1L130.192 111.708C130.033 111.95 129.83 112.18 129.584 112.398C129.338 112.617 129.035 112.795 128.675 112.932C128.319 113.068 127.898 113.137 127.41 113.137ZM136.557 105.604H137.705V112.843C137.705 113.494 137.573 114.05 137.309 114.511C137.044 114.971 136.675 115.32 136.201 115.557C135.732 115.798 135.189 115.919 134.574 115.919C134.319 115.919 134.018 115.878 133.672 115.796C133.33 115.718 132.993 115.584 132.66 115.393C132.332 115.206 132.056 114.953 131.833 114.634L132.496 113.882C132.806 114.256 133.13 114.515 133.467 114.661C133.809 114.807 134.146 114.88 134.479 114.88C134.88 114.88 135.226 114.805 135.518 114.654C135.809 114.504 136.035 114.281 136.194 113.984C136.358 113.693 136.44 113.333 136.44 112.904V107.23L136.557 105.604ZM131.464 109.384V109.24C131.464 108.675 131.53 108.162 131.662 107.702C131.799 107.237 131.993 106.839 132.243 106.506C132.498 106.173 132.806 105.918 133.166 105.74C133.526 105.558 133.932 105.467 134.383 105.467C134.848 105.467 135.253 105.549 135.6 105.713C135.951 105.872 136.247 106.107 136.488 106.417C136.734 106.722 136.928 107.091 137.069 107.524C137.211 107.957 137.309 108.447 137.363 108.994V109.623C137.313 110.165 137.215 110.653 137.069 111.086C136.928 111.519 136.734 111.888 136.488 112.193C136.247 112.499 135.951 112.733 135.6 112.897C135.249 113.057 134.839 113.137 134.369 113.137C133.927 113.137 133.526 113.043 133.166 112.856C132.811 112.67 132.505 112.408 132.25 112.07C131.995 111.733 131.799 111.337 131.662 110.881C131.53 110.421 131.464 109.922 131.464 109.384ZM132.729 109.24V109.384C132.729 109.753 132.765 110.099 132.838 110.423C132.915 110.746 133.032 111.031 133.187 111.277C133.346 111.523 133.549 111.717 133.795 111.858C134.041 111.995 134.335 112.063 134.677 112.063C135.096 112.063 135.442 111.975 135.716 111.797C135.989 111.619 136.206 111.384 136.365 111.093C136.529 110.801 136.657 110.484 136.748 110.143V108.495C136.698 108.244 136.62 108.003 136.516 107.771C136.415 107.534 136.283 107.324 136.119 107.142C135.96 106.955 135.761 106.807 135.524 106.697C135.287 106.588 135.009 106.533 134.69 106.533C134.344 106.533 134.046 106.606 133.795 106.752C133.549 106.893 133.346 107.089 133.187 107.34C133.032 107.586 132.915 107.873 132.838 108.201C132.765 108.525 132.729 108.871 132.729 109.24ZM139.291 109.384V109.227C139.291 108.693 139.368 108.199 139.523 107.743C139.678 107.283 139.902 106.884 140.193 106.547C140.485 106.205 140.838 105.941 141.253 105.754C141.668 105.562 142.132 105.467 142.647 105.467C143.167 105.467 143.634 105.562 144.049 105.754C144.468 105.941 144.824 106.205 145.115 106.547C145.411 106.884 145.637 107.283 145.792 107.743C145.947 108.199 146.024 108.693 146.024 109.227V109.384C146.024 109.917 145.947 110.411 145.792 110.867C145.637 111.323 145.411 111.722 145.115 112.063C144.824 112.401 144.47 112.665 144.056 112.856C143.646 113.043 143.181 113.137 142.661 113.137C142.142 113.137 141.674 113.043 141.26 112.856C140.845 112.665 140.49 112.401 140.193 112.063C139.902 111.722 139.678 111.323 139.523 110.867C139.368 110.411 139.291 109.917 139.291 109.384ZM140.556 109.227V109.384C140.556 109.753 140.599 110.102 140.686 110.43C140.772 110.753 140.902 111.04 141.075 111.291C141.253 111.542 141.474 111.74 141.738 111.886C142.003 112.027 142.31 112.098 142.661 112.098C143.007 112.098 143.311 112.027 143.57 111.886C143.835 111.74 144.053 111.542 144.227 111.291C144.4 111.04 144.53 110.753 144.616 110.43C144.707 110.102 144.753 109.753 144.753 109.384V109.227C144.753 108.862 144.707 108.518 144.616 108.194C144.53 107.866 144.397 107.577 144.22 107.326C144.047 107.071 143.828 106.87 143.563 106.725C143.304 106.579 142.998 106.506 142.647 106.506C142.301 106.506 141.996 106.579 141.731 106.725C141.472 106.87 141.253 107.071 141.075 107.326C140.902 107.577 140.772 107.866 140.686 108.194C140.599 108.518 140.556 108.862 140.556 109.227ZM148.875 106.766V113H147.61V105.604H148.841L148.875 106.766ZM151.186 105.562L151.179 106.738C151.074 106.715 150.974 106.702 150.878 106.697C150.787 106.688 150.682 106.684 150.563 106.684C150.272 106.684 150.014 106.729 149.791 106.82C149.568 106.911 149.379 107.039 149.224 107.203C149.069 107.367 148.946 107.563 148.854 107.791C148.768 108.014 148.711 108.26 148.684 108.529L148.328 108.734C148.328 108.288 148.371 107.868 148.458 107.477C148.549 107.085 148.688 106.738 148.875 106.438C149.062 106.132 149.299 105.895 149.586 105.727C149.878 105.553 150.224 105.467 150.625 105.467C150.716 105.467 150.821 105.478 150.939 105.501C151.058 105.519 151.14 105.54 151.186 105.562ZM154.556 112.234L156.613 105.604H157.967L155 114.142C154.932 114.324 154.84 114.52 154.727 114.729C154.617 114.944 154.476 115.146 154.303 115.338C154.13 115.529 153.92 115.684 153.674 115.803C153.432 115.926 153.143 115.987 152.806 115.987C152.705 115.987 152.578 115.974 152.423 115.946C152.268 115.919 152.159 115.896 152.095 115.878L152.088 114.853C152.124 114.857 152.181 114.862 152.259 114.866C152.341 114.875 152.398 114.88 152.43 114.88C152.717 114.88 152.961 114.841 153.161 114.764C153.362 114.691 153.53 114.565 153.667 114.388C153.808 114.215 153.929 113.975 154.029 113.67L154.556 112.234ZM153.045 105.604L154.966 111.346L155.294 112.679L154.385 113.144L151.664 105.604H153.045Z" fill="#222222"/>
</g>
<path d="M285 105.5L290 110.5L295 105.5" stroke="#222222" stroke-width="1.5" stroke-linecap="round" stroke-linejoin="round"/>
</g>
<defs>
<filter id="filter0_d_375_87027" x="20" y="82" width="296" height="56" filterUnits="userSpaceOnUse" color-interpolation-filters="sRGB">
<feFlood flood-opacity="0" result="BackgroundImageFix"/>
<feColorMatrix in="SourceAlpha" type="matrix" values="0 0 0 0 0 0 0 0 0 0 0 0 0 0 0 0 0 0 127 0" result="hardAlpha"/>
<feOffset dy="2"/>
<feGaussianBlur stdDeviation="2"/>
<feComposite in2="hardAlpha" operator="out"/>
<feColorMatrix type="matrix" values="0 0 0 0 0 0 0 0 0 0 0 0 0 0 0 0 0 0 0.12 0"/>
<feBlend mode="normal" in2="BackgroundImageFix" result="effect1_dropShadow_375_87027"/>
<feBlend mode="normal" in="SourceGraphic" in2="effect1_dropShadow_375_87027" result="shape"/>
</filter>
<clipPath id="clip0_375_87027">
<rect width="972" height="18" fill="white" transform="translate(72 39)"/>
</clipPath>
<clipPath id="clip1_375_87027">
<rect width="228" height="18" fill="white" transform="translate(36 99)"/>
</clipPath>
</defs>
</svg>
